<mxfile host="app.diagrams.net" modified="2021-08-04T13:23:01.623Z" agent="5.0 (Macintosh; Intel Mac OS X 10_15_7) AppleWebKit/537.36 (KHTML, like Gecko) Chrome/92.0.4515.107 Safari/537.36" etag="zUU8b7cfEvGbq2aDCW2V" version="14.9.4" type="github">
  <diagram id="elPstrkWblzeGki9Rq9x" name="Page-1">
    <mxGraphModel dx="1298" dy="840" grid="1" gridSize="10" guides="1" tooltips="1" connect="1" arrows="1" fold="1" page="1" pageScale="1" pageWidth="827" pageHeight="1169" math="0" shadow="0">
      <root>
        <mxCell id="0" />
        <mxCell id="1" parent="0" />
        <mxCell id="yK9FgotHAMvgEAFIu-bF-28" style="edgeStyle=orthogonalEdgeStyle;rounded=0;orthogonalLoop=1;jettySize=auto;html=1;entryX=0.5;entryY=0;entryDx=0;entryDy=0;" edge="1" parent="1" source="yK9FgotHAMvgEAFIu-bF-1" target="yK9FgotHAMvgEAFIu-bF-3">
          <mxGeometry relative="1" as="geometry" />
        </mxCell>
        <mxCell id="yK9FgotHAMvgEAFIu-bF-1" value="新用户购买了兑换码" style="rounded=1;whiteSpace=wrap;html=1;" vertex="1" parent="1">
          <mxGeometry x="330" y="60" width="120" height="60" as="geometry" />
        </mxCell>
        <mxCell id="yK9FgotHAMvgEAFIu-bF-29" style="edgeStyle=orthogonalEdgeStyle;rounded=0;orthogonalLoop=1;jettySize=auto;html=1;entryX=0.5;entryY=0;entryDx=0;entryDy=0;" edge="1" parent="1" source="yK9FgotHAMvgEAFIu-bF-3" target="yK9FgotHAMvgEAFIu-bF-5">
          <mxGeometry relative="1" as="geometry" />
        </mxCell>
        <mxCell id="yK9FgotHAMvgEAFIu-bF-3" value="验证码手机号登陆" style="rounded=0;whiteSpace=wrap;html=1;" vertex="1" parent="1">
          <mxGeometry x="330" y="190" width="120" height="60" as="geometry" />
        </mxCell>
        <mxCell id="yK9FgotHAMvgEAFIu-bF-4" value="sendCode、login" style="text;html=1;align=center;verticalAlign=middle;resizable=0;points=[];autosize=1;strokeColor=none;" vertex="1" parent="1">
          <mxGeometry x="445" y="210" width="110" height="20" as="geometry" />
        </mxCell>
        <mxCell id="yK9FgotHAMvgEAFIu-bF-30" style="edgeStyle=orthogonalEdgeStyle;rounded=0;orthogonalLoop=1;jettySize=auto;html=1;entryX=0.5;entryY=0;entryDx=0;entryDy=0;" edge="1" parent="1" source="yK9FgotHAMvgEAFIu-bF-5" target="yK9FgotHAMvgEAFIu-bF-6">
          <mxGeometry relative="1" as="geometry" />
        </mxCell>
        <mxCell id="yK9FgotHAMvgEAFIu-bF-5" value="新接口兑换商品" style="rounded=0;whiteSpace=wrap;html=1;" vertex="1" parent="1">
          <mxGeometry x="330" y="320" width="120" height="60" as="geometry" />
        </mxCell>
        <mxCell id="yK9FgotHAMvgEAFIu-bF-31" style="edgeStyle=orthogonalEdgeStyle;rounded=0;orthogonalLoop=1;jettySize=auto;html=1;entryX=0.5;entryY=0;entryDx=0;entryDy=0;" edge="1" parent="1" source="yK9FgotHAMvgEAFIu-bF-6" target="yK9FgotHAMvgEAFIu-bF-8">
          <mxGeometry relative="1" as="geometry" />
        </mxCell>
        <mxCell id="yK9FgotHAMvgEAFIu-bF-6" value="查询兑换码数据" style="rounded=0;whiteSpace=wrap;html=1;" vertex="1" parent="1">
          <mxGeometry x="330" y="450" width="120" height="60" as="geometry" />
        </mxCell>
        <mxCell id="yK9FgotHAMvgEAFIu-bF-33" style="edgeStyle=orthogonalEdgeStyle;rounded=0;orthogonalLoop=1;jettySize=auto;html=1;entryX=0.5;entryY=0;entryDx=0;entryDy=0;" edge="1" parent="1" source="yK9FgotHAMvgEAFIu-bF-8" target="yK9FgotHAMvgEAFIu-bF-32">
          <mxGeometry relative="1" as="geometry" />
        </mxCell>
        <mxCell id="yK9FgotHAMvgEAFIu-bF-35" style="edgeStyle=orthogonalEdgeStyle;rounded=0;orthogonalLoop=1;jettySize=auto;html=1;entryX=0.5;entryY=0;entryDx=0;entryDy=0;" edge="1" parent="1" source="yK9FgotHAMvgEAFIu-bF-8" target="yK9FgotHAMvgEAFIu-bF-34">
          <mxGeometry relative="1" as="geometry" />
        </mxCell>
        <mxCell id="yK9FgotHAMvgEAFIu-bF-8" value="是否生效" style="rhombus;whiteSpace=wrap;html=1;" vertex="1" parent="1">
          <mxGeometry x="350" y="585" width="80" height="80" as="geometry" />
        </mxCell>
        <mxCell id="yK9FgotHAMvgEAFIu-bF-27" style="edgeStyle=orthogonalEdgeStyle;rounded=0;orthogonalLoop=1;jettySize=auto;html=1;entryX=0.5;entryY=0;entryDx=0;entryDy=0;" edge="1" parent="1" source="yK9FgotHAMvgEAFIu-bF-9" target="yK9FgotHAMvgEAFIu-bF-10">
          <mxGeometry relative="1" as="geometry" />
        </mxCell>
        <mxCell id="yK9FgotHAMvgEAFIu-bF-9" value="开启事务" style="rounded=0;whiteSpace=wrap;html=1;fillColor=#d5e8d4;strokeColor=#82b366;" vertex="1" parent="1">
          <mxGeometry x="330" y="860" width="120" height="60" as="geometry" />
        </mxCell>
        <mxCell id="yK9FgotHAMvgEAFIu-bF-26" style="edgeStyle=orthogonalEdgeStyle;rounded=0;orthogonalLoop=1;jettySize=auto;html=1;entryX=0.5;entryY=0;entryDx=0;entryDy=0;" edge="1" parent="1" source="yK9FgotHAMvgEAFIu-bF-10" target="yK9FgotHAMvgEAFIu-bF-12">
          <mxGeometry relative="1" as="geometry" />
        </mxCell>
        <mxCell id="yK9FgotHAMvgEAFIu-bF-10" value="where status update 兑换码锁住兑换码" style="rounded=0;whiteSpace=wrap;html=1;fillColor=#d5e8d4;strokeColor=#82b366;" vertex="1" parent="1">
          <mxGeometry x="330" y="1000" width="120" height="60" as="geometry" />
        </mxCell>
        <mxCell id="yK9FgotHAMvgEAFIu-bF-16" style="edgeStyle=orthogonalEdgeStyle;rounded=0;orthogonalLoop=1;jettySize=auto;html=1;entryX=1;entryY=0.5;entryDx=0;entryDy=0;" edge="1" parent="1" source="yK9FgotHAMvgEAFIu-bF-12" target="yK9FgotHAMvgEAFIu-bF-15">
          <mxGeometry relative="1" as="geometry" />
        </mxCell>
        <mxCell id="yK9FgotHAMvgEAFIu-bF-22" value="No" style="edgeLabel;html=1;align=center;verticalAlign=middle;resizable=0;points=[];" vertex="1" connectable="0" parent="yK9FgotHAMvgEAFIu-bF-16">
          <mxGeometry y="-1" relative="1" as="geometry">
            <mxPoint as="offset" />
          </mxGeometry>
        </mxCell>
        <mxCell id="yK9FgotHAMvgEAFIu-bF-25" style="edgeStyle=orthogonalEdgeStyle;rounded=0;orthogonalLoop=1;jettySize=auto;html=1;entryX=0.5;entryY=0;entryDx=0;entryDy=0;" edge="1" parent="1" source="yK9FgotHAMvgEAFIu-bF-12" target="yK9FgotHAMvgEAFIu-bF-14">
          <mxGeometry relative="1" as="geometry" />
        </mxCell>
        <mxCell id="yK9FgotHAMvgEAFIu-bF-12" value="检查用户是否重复购买" style="rhombus;whiteSpace=wrap;html=1;fillColor=#ffe6cc;strokeColor=#d79b00;" vertex="1" parent="1">
          <mxGeometry x="350" y="1130" width="80" height="80" as="geometry" />
        </mxCell>
        <mxCell id="yK9FgotHAMvgEAFIu-bF-13" value="调用literacyservice" style="text;html=1;align=center;verticalAlign=middle;resizable=0;points=[];autosize=1;strokeColor=none;" vertex="1" parent="1">
          <mxGeometry x="430" y="1160" width="120" height="20" as="geometry" />
        </mxCell>
        <mxCell id="yK9FgotHAMvgEAFIu-bF-24" style="edgeStyle=orthogonalEdgeStyle;rounded=0;orthogonalLoop=1;jettySize=auto;html=1;entryX=0.5;entryY=0;entryDx=0;entryDy=0;" edge="1" parent="1" source="yK9FgotHAMvgEAFIu-bF-14" target="yK9FgotHAMvgEAFIu-bF-17">
          <mxGeometry relative="1" as="geometry" />
        </mxCell>
        <mxCell id="yK9FgotHAMvgEAFIu-bF-14" value="调用oms创建订单任务" style="rounded=0;whiteSpace=wrap;html=1;fillColor=#ffe6cc;strokeColor=#d79b00;" vertex="1" parent="1">
          <mxGeometry x="330" y="1280" width="120" height="60" as="geometry" />
        </mxCell>
        <mxCell id="yK9FgotHAMvgEAFIu-bF-41" style="edgeStyle=orthogonalEdgeStyle;rounded=0;orthogonalLoop=1;jettySize=auto;html=1;" edge="1" parent="1" source="yK9FgotHAMvgEAFIu-bF-15" target="yK9FgotHAMvgEAFIu-bF-40">
          <mxGeometry relative="1" as="geometry" />
        </mxCell>
        <mxCell id="yK9FgotHAMvgEAFIu-bF-15" value="事务回滚" style="rounded=0;whiteSpace=wrap;html=1;fillColor=#d5e8d4;strokeColor=#82b366;" vertex="1" parent="1">
          <mxGeometry x="90" y="1140" width="120" height="60" as="geometry" />
        </mxCell>
        <mxCell id="yK9FgotHAMvgEAFIu-bF-20" style="edgeStyle=orthogonalEdgeStyle;rounded=0;orthogonalLoop=1;jettySize=auto;html=1;entryX=1;entryY=0.75;entryDx=0;entryDy=0;" edge="1" parent="1" source="yK9FgotHAMvgEAFIu-bF-17" target="yK9FgotHAMvgEAFIu-bF-15">
          <mxGeometry relative="1" as="geometry" />
        </mxCell>
        <mxCell id="yK9FgotHAMvgEAFIu-bF-21" value="No" style="edgeLabel;html=1;align=center;verticalAlign=middle;resizable=0;points=[];" vertex="1" connectable="0" parent="yK9FgotHAMvgEAFIu-bF-20">
          <mxGeometry x="-0.4739" relative="1" as="geometry">
            <mxPoint as="offset" />
          </mxGeometry>
        </mxCell>
        <mxCell id="yK9FgotHAMvgEAFIu-bF-23" style="edgeStyle=orthogonalEdgeStyle;rounded=0;orthogonalLoop=1;jettySize=auto;html=1;entryX=0.5;entryY=0;entryDx=0;entryDy=0;" edge="1" parent="1" source="yK9FgotHAMvgEAFIu-bF-17" target="yK9FgotHAMvgEAFIu-bF-18">
          <mxGeometry relative="1" as="geometry" />
        </mxCell>
        <mxCell id="yK9FgotHAMvgEAFIu-bF-17" value="创建任务成功？" style="rhombus;whiteSpace=wrap;html=1;fillColor=#ffe6cc;strokeColor=#d79b00;" vertex="1" parent="1">
          <mxGeometry x="350" y="1410" width="80" height="80" as="geometry" />
        </mxCell>
        <mxCell id="yK9FgotHAMvgEAFIu-bF-39" style="edgeStyle=orthogonalEdgeStyle;rounded=0;orthogonalLoop=1;jettySize=auto;html=1;" edge="1" parent="1" source="yK9FgotHAMvgEAFIu-bF-18" target="yK9FgotHAMvgEAFIu-bF-38">
          <mxGeometry relative="1" as="geometry" />
        </mxCell>
        <mxCell id="yK9FgotHAMvgEAFIu-bF-18" value="事务提交" style="rounded=0;whiteSpace=wrap;html=1;fillColor=#d5e8d4;strokeColor=#82b366;" vertex="1" parent="1">
          <mxGeometry x="330" y="1550" width="120" height="60" as="geometry" />
        </mxCell>
        <mxCell id="yK9FgotHAMvgEAFIu-bF-32" value="返回对应错误信息" style="rounded=0;whiteSpace=wrap;html=1;" vertex="1" parent="1">
          <mxGeometry x="540" y="1690" width="120" height="60" as="geometry" />
        </mxCell>
        <mxCell id="yK9FgotHAMvgEAFIu-bF-36" style="edgeStyle=orthogonalEdgeStyle;rounded=0;orthogonalLoop=1;jettySize=auto;html=1;entryX=0.5;entryY=0;entryDx=0;entryDy=0;" edge="1" parent="1" source="yK9FgotHAMvgEAFIu-bF-34" target="yK9FgotHAMvgEAFIu-bF-9">
          <mxGeometry relative="1" as="geometry" />
        </mxCell>
        <mxCell id="yK9FgotHAMvgEAFIu-bF-34" value="查询literacyservice获取商品的价格" style="rounded=0;whiteSpace=wrap;html=1;fillColor=#ffe6cc;strokeColor=#d79b00;" vertex="1" parent="1">
          <mxGeometry x="330" y="730" width="120" height="60" as="geometry" />
        </mxCell>
        <mxCell id="yK9FgotHAMvgEAFIu-bF-37" value="原价和实际价格" style="text;html=1;align=center;verticalAlign=middle;resizable=0;points=[];autosize=1;strokeColor=none;" vertex="1" parent="1">
          <mxGeometry x="455" y="750" width="100" height="20" as="geometry" />
        </mxCell>
        <mxCell id="yK9FgotHAMvgEAFIu-bF-38" value="返回兑换成功" style="rounded=0;whiteSpace=wrap;html=1;" vertex="1" parent="1">
          <mxGeometry x="330" y="1690" width="120" height="60" as="geometry" />
        </mxCell>
        <mxCell id="yK9FgotHAMvgEAFIu-bF-40" value="返回账户已有该权益" style="rounded=0;whiteSpace=wrap;html=1;" vertex="1" parent="1">
          <mxGeometry x="90" y="1690" width="120" height="60" as="geometry" />
        </mxCell>
        <mxCell id="yK9FgotHAMvgEAFIu-bF-46" style="edgeStyle=orthogonalEdgeStyle;rounded=0;orthogonalLoop=1;jettySize=auto;html=1;entryX=0.5;entryY=0;entryDx=0;entryDy=0;" edge="1" parent="1" source="yK9FgotHAMvgEAFIu-bF-42" target="yK9FgotHAMvgEAFIu-bF-43">
          <mxGeometry relative="1" as="geometry" />
        </mxCell>
        <mxCell id="yK9FgotHAMvgEAFIu-bF-42" value="oms下单成功mq回调" style="rounded=1;whiteSpace=wrap;html=1;" vertex="1" parent="1">
          <mxGeometry x="740" y="60" width="120" height="60" as="geometry" />
        </mxCell>
        <mxCell id="yK9FgotHAMvgEAFIu-bF-43" value="修改兑换码状态 &amp;amp; 记录关联订单ID" style="rounded=0;whiteSpace=wrap;html=1;" vertex="1" parent="1">
          <mxGeometry x="740" y="190" width="120" height="60" as="geometry" />
        </mxCell>
        <mxCell id="yK9FgotHAMvgEAFIu-bF-44" value="需要获取相关ID，&lt;br&gt;这个是这里获取，还是什么时候获取？" style="text;html=1;align=center;verticalAlign=middle;resizable=0;points=[];autosize=1;strokeColor=none;" vertex="1" parent="1">
          <mxGeometry x="440" y="1295" width="220" height="30" as="geometry" />
        </mxCell>
        <mxCell id="yK9FgotHAMvgEAFIu-bF-45" value="里面应该有订单ID吧？" style="text;html=1;align=center;verticalAlign=middle;resizable=0;points=[];autosize=1;strokeColor=#6c8ebf;fillColor=#dae8fc;" vertex="1" parent="1">
          <mxGeometry x="860" y="80" width="140" height="20" as="geometry" />
        </mxCell>
      </root>
    </mxGraphModel>
  </diagram>
</mxfile>
